<svg width="24" height="24" viewBox="0 0 24 24" fill="none" xmlns="http://www.w3.org/2000/svg">
  <path d="M8.33894 15.1563V18.9119C8.33894 19.8197 7.72758 20.6136 6.84994 20.8455L4.70094 21.4134C3.43228 21.7487 2.18994 20.792 2.18994 19.4798V18.3214C2.18994 17.4136 2.80131 16.6197 3.67894 16.3878L8.33894 15.1563ZM8.33894 15.1563V5.2193C8.33894 4.76671 8.64292 4.37054 9.08008 4.25339L19.9611 1.33737C20.5962 1.16716 21.2199 1.64574 21.2199 2.30329V11.6875M21.2199 11.6875V15.4598C21.2199 16.3676 20.6085 17.1616 19.7309 17.3935L17.5809 17.9616C16.3122 18.2968 15.0699 17.3401 15.0699 16.0279V14.8764C15.0699 13.9721 15.6767 13.1804 16.5499 12.9452L21.2199 11.6875Z" stroke="white" strokeWidth="1.5" strokeMiterlimit="10"/>
</svg>
