<svg width="24" height="24" viewBox="0 0 24 24" fill="none" xmlns="http://www.w3.org/2000/svg">
  <path d="M21.2199 11.6875V2.30329C21.2199 1.64574 20.5962 1.16716 19.9611 1.33737L9.08008 4.25339C8.64292 4.37054 8.33894 4.76671 8.33894 5.2193V8M21.2199 11.6875V15.4598C21.2199 16.3676 20.6085 17.1616 19.7309 17.3935L18.1449 17.8125M21.2199 11.6875L16.5499 12.9452C15.6767 13.1804 15.0699 13.9721 15.0699 14.8764V14.9844M8.33894 15.1563L3.67894 16.3878C2.80131 16.6197 2.18994 17.4136 2.18994 18.3214V19.4798C2.18994 20.792 3.43228 21.7487 4.70094 21.4134L6.84994 20.8455C7.72758 20.6136 8.33894 19.8197 8.33894 18.9119V15.1563ZM8.33894 15.1563V13M3 3.00001L21 21" stroke="white" strokeWidth="1.5" strokeLinecap="round" strokeLinejoin="round"/>
</svg>
