<svg width="24" height="24" viewBox="0 0 24 24" fill="none" xmlns="http://www.w3.org/2000/svg">
<g clipPath="url(#clip0_1_49)">
<path d="M16.6875 22.75C17.1017 22.75 17.4375 22.4142 17.4375 22C17.4375 21.5858 17.1017 21.25 16.6875 21.25V22.75ZM9.625 14.125C9.625 13.7108 9.28921 13.375 8.875 13.375C8.46079 13.375 8.125 13.7108 8.125 14.125H9.625ZM8.125 21.875C8.125 22.2892 8.46079 22.625 8.875 22.625C9.28921 22.625 9.625 22.2892 9.625 21.875H8.125ZM3.375 7.9375C3.375 7.52329 3.03921 7.1875 2.625 7.1875C2.21079 7.1875 1.875 7.52329 1.875 7.9375H3.375ZM1.53033 0.46967C1.23744 0.176777 0.762563 0.176777 0.46967 0.46967C0.176777 0.762563 0.176777 1.23744 0.46967 1.53033L1.53033 0.46967ZM22.4697 23.5303C22.7626 23.8232 23.2374 23.8232 23.5303 23.5303C23.8232 23.2374 23.8232 22.7626 23.5303 22.4697L22.4697 23.5303ZM20.625 4V20H22.125V4H20.625ZM16.6875 21.25H4.625V22.75H16.6875V21.25ZM8.125 14.125V21.875H9.625V14.125H8.125ZM4.625 21.25C3.93464 21.25 3.375 20.6904 3.375 20H1.875C1.875 21.5188 3.10622 22.75 4.625 22.75V21.25ZM19.375 2.75C20.0654 2.75 20.625 3.30964 20.625 4H22.125C22.125 2.48122 20.8938 1.25 19.375 1.25V2.75ZM4.625 2.75H19.375V1.25H4.625V2.75ZM3.375 20V7.9375H1.875V20H3.375ZM20.625 20C20.625 20.2463 20.5545 20.4739 20.4329 20.6663L21.701 21.4676C21.9696 21.0425 22.125 20.5382 22.125 20H20.625ZM20.4329 20.6663C20.431 20.6693 20.4291 20.6724 20.4271 20.6755L21.6881 21.4877C21.6924 21.4811 21.6967 21.4744 21.701 21.4676L20.4329 20.6663ZM4.625 1.25C3.65708 1.25 2.80652 1.75064 2.31751 2.50358L3.57548 3.3206C3.79957 2.97556 4.18616 2.75 4.625 2.75V1.25ZM0.46967 1.53033L20.5366 21.5973L21.5973 20.5366L1.53033 0.46967L0.46967 1.53033ZM20.5366 21.5973L22.4697 23.5303L23.5303 22.4697L21.5973 20.5366L20.5366 21.5973Z" fill="white"/>
<path d="M7.125 2.50391H10.625V11.5625L7.125 8.0625V2.50391Z" fill="white"/>
<path d="M13.37 2.50391H16.87V14.0156H13.37V2.50391Z" fill="white"/>
</g>
<defs>
<clipPath id="clip0_1_49">
<rect width="24" height="24" fill="white"/>
</clipPath>
</defs>
</svg>
